<?xml version="1.0" encoding="UTF-8"?>
<svg xmlns="http://www.w3.org/2000/svg" version="1.1" width="100" height="100" viewBox="0 0 100 100"><rect x="0" y="0" width="100" height="100" fill="#ffffff"/><g transform="scale(3.448)"><g transform="translate(0,0)"><path fill-rule="evenodd" d="M12 0L12 2L11 2L11 1L10 1L10 2L11 2L11 3L8 3L8 4L9 4L9 5L8 5L8 7L9 7L9 8L6 8L6 9L10 9L10 11L11 11L11 12L9 12L9 10L5 10L5 11L8 11L8 12L4 12L4 11L3 11L3 9L5 9L5 8L0 8L0 9L1 9L1 10L2 10L2 13L1 13L1 15L0 15L0 16L2 16L2 15L3 15L3 18L2 18L2 17L0 17L0 21L1 21L1 18L2 18L2 19L3 19L3 20L5 20L5 21L7 21L7 20L8 20L8 19L9 19L9 21L8 21L8 23L9 23L9 22L12 22L12 23L10 23L10 24L8 24L8 29L11 29L11 28L13 28L13 29L14 29L14 28L13 28L13 27L14 27L14 26L15 26L15 27L17 27L17 25L18 25L18 27L19 27L19 28L22 28L22 27L23 27L23 26L24 26L24 27L26 27L26 26L24 26L24 25L28 25L28 26L27 26L27 28L24 28L24 29L27 29L27 28L28 28L28 26L29 26L29 25L28 25L28 24L29 24L29 23L27 23L27 22L29 22L29 20L28 20L28 19L27 19L27 16L28 16L28 15L27 15L27 12L28 12L28 11L27 11L27 12L25 12L25 9L26 9L26 8L25 8L25 9L24 9L24 8L23 8L23 9L22 9L22 8L20 8L20 9L18 9L18 8L17 8L17 9L16 9L16 8L15 8L15 9L16 9L16 10L14 10L14 8L13 8L13 5L12 5L12 7L11 7L11 6L10 6L10 4L11 4L11 3L12 3L12 4L15 4L15 3L13 3L13 2L14 2L14 1L15 1L15 2L16 2L16 3L17 3L17 4L16 4L16 5L14 5L14 7L15 7L15 6L16 6L16 7L17 7L17 4L18 4L18 7L19 7L19 5L20 5L20 3L21 3L21 0L19 0L19 1L17 1L17 0L16 0L16 1L15 1L15 0L14 0L14 1L13 1L13 0ZM8 1L8 2L9 2L9 1ZM19 1L19 2L20 2L20 1ZM17 2L17 3L18 3L18 4L19 4L19 3L18 3L18 2ZM9 6L9 7L10 7L10 6ZM20 6L20 7L21 7L21 6ZM10 8L10 9L13 9L13 8ZM27 8L27 9L28 9L28 10L29 10L29 9L28 9L28 8ZM17 9L17 10L18 10L18 9ZM20 9L20 10L19 10L19 11L17 11L17 12L16 12L16 13L15 13L15 12L14 12L14 11L13 11L13 12L11 12L11 13L10 13L10 14L8 14L8 13L9 13L9 12L8 12L8 13L5 13L5 15L4 15L4 12L3 12L3 15L4 15L4 18L3 18L3 19L4 19L4 18L5 18L5 15L6 15L6 16L7 16L7 15L6 15L6 14L8 14L8 16L9 16L9 17L6 17L6 18L9 18L9 17L10 17L10 18L11 18L11 19L10 19L10 20L11 20L11 21L13 21L13 22L14 22L14 23L13 23L13 24L11 24L11 25L13 25L13 26L14 26L14 25L15 25L15 26L16 26L16 25L17 25L17 24L18 24L18 25L19 25L19 27L20 27L20 23L19 23L19 24L18 24L18 23L15 23L15 22L19 22L19 20L21 20L21 19L22 19L22 18L21 18L21 17L20 17L20 16L21 16L21 14L22 14L22 17L23 17L23 18L24 18L24 19L25 19L25 21L26 21L26 20L27 20L27 19L25 19L25 18L24 18L24 17L26 17L26 16L27 16L27 15L26 15L26 13L25 13L25 12L24 12L24 9L23 9L23 12L22 12L22 13L20 13L20 12L21 12L21 11L22 11L22 10L21 10L21 9ZM11 10L11 11L12 11L12 10ZM0 11L0 12L1 12L1 11ZM13 12L13 13L11 13L11 14L10 14L10 15L9 15L9 16L10 16L10 17L11 17L11 18L12 18L12 19L11 19L11 20L13 20L13 21L14 21L14 22L15 22L15 21L14 21L14 20L17 20L17 21L18 21L18 20L19 20L19 19L18 19L18 20L17 20L17 17L18 17L18 16L15 16L15 17L16 17L16 18L14 18L14 16L13 16L13 15L16 15L16 14L17 14L17 13L18 13L18 14L20 14L20 13L18 13L18 12L17 12L17 13L16 13L16 14L15 14L15 13L14 13L14 12ZM23 12L23 13L22 13L22 14L23 14L23 13L24 13L24 14L25 14L25 13L24 13L24 12ZM13 13L13 14L14 14L14 13ZM28 13L28 14L29 14L29 13ZM11 14L11 15L10 15L10 16L11 16L11 17L13 17L13 16L11 16L11 15L12 15L12 14ZM23 15L23 16L24 16L24 15ZM19 17L19 18L20 18L20 17ZM28 17L28 18L29 18L29 17ZM5 19L5 20L7 20L7 19ZM13 19L13 20L14 20L14 19ZM21 21L21 24L24 24L24 21ZM22 22L22 23L23 23L23 22ZM25 23L25 24L27 24L27 23ZM13 24L13 25L14 25L14 24ZM9 25L9 27L10 27L10 25ZM22 25L22 26L21 26L21 27L22 27L22 26L23 26L23 25ZM11 26L11 27L12 27L12 26ZM15 28L15 29L16 29L16 28ZM17 28L17 29L18 29L18 28ZM0 0L0 7L7 7L7 0ZM1 1L1 6L6 6L6 1ZM2 2L2 5L5 5L5 2ZM22 0L22 7L29 7L29 0ZM23 1L23 6L28 6L28 1ZM24 2L24 5L27 5L27 2ZM0 22L0 29L7 29L7 22ZM1 23L1 28L6 28L6 23ZM2 24L2 27L5 27L5 24Z" fill="#000000"/></g></g></svg>
