<?xml version="1.0" encoding="UTF-8"?>
<svg xmlns="http://www.w3.org/2000/svg" version="1.1" width="100" height="100" viewBox="0 0 100 100"><rect x="0" y="0" width="100" height="100" fill="#ffffff"/><g transform="scale(3.448)"><g transform="translate(0,0)"><path fill-rule="evenodd" d="M8 0L8 1L9 1L9 2L8 2L8 5L9 5L9 4L11 4L11 5L10 5L10 10L8 10L8 12L9 12L9 13L7 13L7 12L6 12L6 11L7 11L7 10L5 10L5 9L4 9L4 8L0 8L0 12L1 12L1 13L0 13L0 16L1 16L1 17L2 17L2 20L1 20L1 21L2 21L2 20L3 20L3 21L5 21L5 19L7 19L7 18L6 18L6 17L8 17L8 16L6 16L6 15L8 15L8 14L9 14L9 15L10 15L10 16L9 16L9 18L10 18L10 20L9 20L9 19L8 19L8 20L6 20L6 21L8 21L8 22L9 22L9 23L10 23L10 24L12 24L12 23L13 23L13 25L14 25L14 24L17 24L17 25L15 25L15 26L18 26L18 24L17 24L17 22L16 22L16 23L15 23L15 21L19 21L19 24L20 24L20 25L24 25L24 26L25 26L25 25L26 25L26 26L28 26L28 27L27 27L27 29L28 29L28 27L29 27L29 25L28 25L28 24L26 24L26 22L27 22L27 23L28 23L28 22L29 22L29 21L27 21L27 18L28 18L28 15L29 15L29 13L27 13L27 12L26 12L26 11L28 11L28 12L29 12L29 11L28 11L28 10L29 10L29 8L28 8L28 10L26 10L26 11L25 11L25 13L27 13L27 14L24 14L24 12L23 12L23 13L22 13L22 12L20 12L20 11L24 11L24 10L25 10L25 9L27 9L27 8L24 8L24 10L23 10L23 9L22 9L22 8L21 8L21 6L20 6L20 5L21 5L21 4L20 4L20 3L21 3L21 2L20 2L20 3L19 3L19 6L18 6L18 7L17 7L17 6L16 6L16 7L15 7L15 5L18 5L18 3L17 3L17 4L15 4L15 3L16 3L16 2L17 2L17 0L16 0L16 2L15 2L15 0L14 0L14 1L13 1L13 0L12 0L12 1L9 1L9 0ZM19 0L19 1L21 1L21 0ZM12 2L12 3L11 3L11 4L12 4L12 3L13 3L13 2ZM14 2L14 3L15 3L15 2ZM13 4L13 5L14 5L14 4ZM11 5L11 9L12 9L12 8L13 8L13 9L14 9L14 11L15 11L15 12L14 12L14 13L13 13L13 11L12 11L12 12L11 12L11 13L10 13L10 14L11 14L11 15L12 15L12 14L13 14L13 16L15 16L15 17L12 17L12 18L11 18L11 16L10 16L10 18L11 18L11 21L10 21L10 23L11 23L11 21L12 21L12 20L13 20L13 22L14 22L14 21L15 21L15 20L16 20L16 19L13 19L13 18L15 18L15 17L16 17L16 18L17 18L17 19L18 19L18 20L19 20L19 21L20 21L20 19L21 19L21 20L22 20L22 18L24 18L24 19L23 19L23 20L26 20L26 19L25 19L25 18L26 18L26 17L27 17L27 15L24 15L24 14L23 14L23 15L22 15L22 14L20 14L20 15L18 15L18 14L19 14L19 13L20 13L20 12L18 12L18 11L20 11L20 10L21 10L21 9L20 9L20 10L18 10L18 9L17 9L17 11L16 11L16 8L17 8L17 7L16 7L16 8L14 8L14 6L13 6L13 7L12 7L12 5ZM8 6L8 7L9 7L9 6ZM19 6L19 8L20 8L20 6ZM6 8L6 9L7 9L7 8ZM8 8L8 9L9 9L9 8ZM1 9L1 10L2 10L2 9ZM3 10L3 11L1 11L1 12L4 12L4 13L2 13L2 14L3 14L3 15L1 15L1 16L3 16L3 19L5 19L5 18L4 18L4 15L5 15L5 14L4 14L4 13L6 13L6 14L7 14L7 13L6 13L6 12L4 12L4 10ZM15 12L15 14L14 14L14 15L15 15L15 14L16 14L16 15L17 15L17 14L18 14L18 12L17 12L17 13L16 13L16 12ZM21 15L21 16L22 16L22 15ZM23 15L23 17L25 17L25 16L24 16L24 15ZM5 16L5 17L6 17L6 16ZM16 16L16 17L17 17L17 16ZM18 16L18 18L19 18L19 16ZM0 18L0 19L1 19L1 18ZM8 20L8 21L9 21L9 20ZM21 21L21 24L24 24L24 21ZM22 22L22 23L23 23L23 22ZM8 25L8 29L9 29L9 28L10 28L10 29L15 29L15 27L14 27L14 28L13 28L13 26L12 26L12 27L11 27L11 25L10 25L10 27L9 27L9 25ZM19 26L19 28L18 28L18 29L19 29L19 28L20 28L20 29L22 29L22 26ZM23 28L23 29L24 29L24 28ZM25 28L25 29L26 29L26 28ZM0 0L0 7L7 7L7 0ZM1 1L1 6L6 6L6 1ZM2 2L2 5L5 5L5 2ZM22 0L22 7L29 7L29 0ZM23 1L23 6L28 6L28 1ZM24 2L24 5L27 5L27 2ZM0 22L0 29L7 29L7 22ZM1 23L1 28L6 28L6 23ZM2 24L2 27L5 27L5 24Z" fill="#000000"/></g></g></svg>
