<?xml version="1.0" encoding="UTF-8"?>
<svg xmlns="http://www.w3.org/2000/svg" version="1.1" width="100" height="100" viewBox="0 0 100 100"><rect x="0" y="0" width="100" height="100" fill="#ffffff"/><g transform="scale(3.448)"><g transform="translate(0,0)"><path fill-rule="evenodd" d="M12 0L12 1L13 1L13 2L14 2L14 1L15 1L15 2L16 2L16 3L17 3L17 4L16 4L16 5L14 5L14 7L15 7L15 6L16 6L16 7L17 7L17 4L18 4L18 7L19 7L19 5L20 5L20 3L21 3L21 0L19 0L19 1L17 1L17 0L16 0L16 1L15 1L15 0L14 0L14 1L13 1L13 0ZM8 1L8 2L9 2L9 1ZM10 1L10 2L11 2L11 1ZM19 1L19 2L20 2L20 1ZM17 2L17 3L18 3L18 4L19 4L19 3L18 3L18 2ZM8 3L8 4L9 4L9 5L8 5L8 7L9 7L9 8L6 8L6 9L5 9L5 8L0 8L0 11L1 11L1 12L0 12L0 16L1 16L1 17L0 17L0 21L1 21L1 17L4 17L4 18L2 18L2 20L3 20L3 21L7 21L7 20L8 20L8 23L9 23L9 24L8 24L8 29L9 29L9 28L10 28L10 27L11 27L11 26L13 26L13 25L14 25L14 28L13 28L13 29L14 29L14 28L15 28L15 29L16 29L16 28L15 28L15 27L17 27L17 25L18 25L18 27L19 27L19 28L22 28L22 27L23 27L23 26L24 26L24 27L26 27L26 26L24 26L24 25L28 25L28 26L27 26L27 28L24 28L24 29L27 29L27 28L28 28L28 26L29 26L29 25L28 25L28 24L29 24L29 23L27 23L27 22L29 22L29 20L28 20L28 19L27 19L27 16L28 16L28 15L27 15L27 12L28 12L28 11L27 11L27 12L25 12L25 9L26 9L26 8L25 8L25 9L24 9L24 8L23 8L23 9L22 9L22 8L20 8L20 9L18 9L18 8L17 8L17 9L16 9L16 8L15 8L15 9L16 9L16 10L14 10L14 8L13 8L13 9L10 9L10 8L11 8L11 6L10 6L10 4L11 4L11 3ZM12 3L12 4L15 4L15 3ZM9 6L9 7L10 7L10 6ZM12 6L12 7L13 7L13 6ZM20 6L20 7L21 7L21 6ZM27 8L27 9L28 9L28 10L29 10L29 9L28 9L28 8ZM3 9L3 10L1 10L1 11L3 11L3 12L4 12L4 13L3 13L3 14L1 14L1 15L2 15L2 16L3 16L3 14L4 14L4 16L7 16L7 17L5 17L5 20L7 20L7 19L6 19L6 18L7 18L7 17L10 17L10 18L8 18L8 19L9 19L9 20L10 20L10 19L11 19L11 21L13 21L13 22L10 22L10 21L9 21L9 22L10 22L10 23L11 23L11 25L13 25L13 24L14 24L14 25L15 25L15 26L16 26L16 25L17 25L17 24L18 24L18 25L19 25L19 27L20 27L20 23L19 23L19 24L18 24L18 23L15 23L15 24L14 24L14 21L15 21L15 22L19 22L19 20L21 20L21 19L22 19L22 18L21 18L21 17L20 17L20 16L21 16L21 14L22 14L22 17L23 17L23 18L24 18L24 19L25 19L25 21L26 21L26 20L27 20L27 19L25 19L25 18L24 18L24 17L26 17L26 16L27 16L27 15L26 15L26 13L25 13L25 12L24 12L24 9L23 9L23 12L22 12L22 13L20 13L20 12L21 12L21 11L22 11L22 10L21 10L21 9L20 9L20 10L19 10L19 11L17 11L17 12L16 12L16 13L15 13L15 12L14 12L14 11L13 11L13 10L11 10L11 11L10 11L10 9L8 9L8 10L7 10L7 9L6 9L6 10L7 10L7 11L6 11L6 12L7 12L7 11L8 11L8 12L11 12L11 13L10 13L10 14L9 14L9 15L8 15L8 16L7 16L7 15L5 15L5 14L7 14L7 13L5 13L5 12L4 12L4 11L3 11L3 10L5 10L5 9ZM17 9L17 10L18 10L18 9ZM8 10L8 11L9 11L9 10ZM1 12L1 13L2 13L2 12ZM13 12L13 13L11 13L11 14L10 14L10 15L11 15L11 14L13 14L13 13L14 13L14 14L15 14L15 15L14 15L14 16L13 16L13 17L11 17L11 16L10 16L10 17L11 17L11 18L13 18L13 19L14 19L14 20L13 20L13 21L14 21L14 20L17 20L17 21L18 21L18 20L19 20L19 19L18 19L18 20L17 20L17 17L18 17L18 16L15 16L15 15L16 15L16 14L17 14L17 13L18 13L18 14L20 14L20 13L18 13L18 12L17 12L17 13L16 13L16 14L15 14L15 13L14 13L14 12ZM23 12L23 13L22 13L22 14L23 14L23 13L24 13L24 14L25 14L25 13L24 13L24 12ZM4 13L4 14L5 14L5 13ZM28 13L28 14L29 14L29 13ZM23 15L23 16L24 16L24 15ZM14 16L14 18L16 18L16 17L15 17L15 16ZM19 17L19 18L20 18L20 17ZM28 17L28 18L29 18L29 17ZM3 19L3 20L4 20L4 19ZM21 21L21 24L24 24L24 21ZM22 22L22 23L23 23L23 22ZM25 23L25 24L27 24L27 23ZM9 25L9 27L10 27L10 25ZM22 25L22 26L21 26L21 27L22 27L22 26L23 26L23 25ZM17 28L17 29L18 29L18 28ZM0 0L0 7L7 7L7 0ZM1 1L1 6L6 6L6 1ZM2 2L2 5L5 5L5 2ZM22 0L22 7L29 7L29 0ZM23 1L23 6L28 6L28 1ZM24 2L24 5L27 5L27 2ZM0 22L0 29L7 29L7 22ZM1 23L1 28L6 28L6 23ZM2 24L2 27L5 27L5 24Z" fill="#000000"/></g></g></svg>
