<?xml version="1.0" encoding="UTF-8"?>
<svg xmlns="http://www.w3.org/2000/svg" version="1.1" width="100" height="100" viewBox="0 0 100 100"><rect x="0" y="0" width="100" height="100" fill="#ffffff"/><g transform="scale(3.448)"><g transform="translate(0,0)"><path fill-rule="evenodd" d="M9 0L9 1L8 1L8 3L9 3L9 4L8 4L8 8L6 8L6 9L5 9L5 10L6 10L6 11L4 11L4 10L2 10L2 11L1 11L1 9L2 9L2 8L0 8L0 12L1 12L1 13L0 13L0 15L1 15L1 14L2 14L2 16L3 16L3 15L5 15L5 16L4 16L4 17L1 17L1 16L0 16L0 17L1 17L1 18L0 18L0 19L1 19L1 18L2 18L2 19L3 19L3 20L2 20L2 21L3 21L3 20L5 20L5 17L8 17L8 18L9 18L9 17L8 17L8 16L9 16L9 12L6 12L6 11L7 11L7 10L8 10L8 11L11 11L11 12L13 12L13 13L14 13L14 15L13 15L13 14L11 14L11 13L10 13L10 16L11 16L11 15L12 15L12 16L14 16L14 18L12 18L12 17L10 17L10 19L8 19L8 20L6 20L6 21L8 21L8 23L10 23L10 22L11 22L11 21L12 21L12 20L13 20L13 22L12 22L12 23L11 23L11 24L13 24L13 25L14 25L14 26L11 26L11 27L10 27L10 29L11 29L11 27L12 27L12 28L14 28L14 29L15 29L15 28L14 28L14 27L15 27L15 25L17 25L17 29L18 29L18 28L19 28L19 29L22 29L22 26L23 26L23 28L24 28L24 29L25 29L25 28L26 28L26 26L25 26L25 25L26 25L26 24L28 24L28 25L29 25L29 23L28 23L28 22L29 22L29 21L27 21L27 20L29 20L29 17L28 17L28 15L29 15L29 14L27 14L27 13L29 13L29 12L28 12L28 10L29 10L29 9L28 9L28 8L26 8L26 9L25 9L25 8L22 8L22 9L21 9L21 8L20 8L20 9L21 9L21 10L18 10L18 9L17 9L17 8L19 8L19 6L20 6L20 7L21 7L21 4L20 4L20 5L19 5L19 3L21 3L21 1L20 1L20 0L19 0L19 1L20 1L20 2L17 2L17 3L18 3L18 5L19 5L19 6L18 6L18 7L17 7L17 4L15 4L15 3L16 3L16 0L15 0L15 3L14 3L14 4L13 4L13 6L12 6L12 8L10 8L10 7L11 7L11 6L10 6L10 5L9 5L9 4L12 4L12 3L11 3L11 2L12 2L12 1L13 1L13 2L14 2L14 1L13 1L13 0L12 0L12 1L11 1L11 0ZM9 1L9 2L11 2L11 1ZM14 5L14 6L13 6L13 8L12 8L12 9L11 9L11 11L12 11L12 10L13 10L13 11L14 11L14 12L15 12L15 18L14 18L14 19L13 19L13 20L14 20L14 21L15 21L15 22L13 22L13 23L15 23L15 24L18 24L18 26L19 26L19 28L20 28L20 24L19 24L19 23L20 23L20 21L19 21L19 20L21 20L21 19L20 19L20 17L23 17L23 18L22 18L22 20L25 20L25 23L27 23L27 22L26 22L26 20L27 20L27 18L28 18L28 17L27 17L27 15L26 15L26 13L27 13L27 12L26 12L26 13L25 13L25 11L24 11L24 10L25 10L25 9L24 9L24 10L23 10L23 12L24 12L24 15L22 15L22 14L23 14L23 13L22 13L22 12L18 12L18 11L17 11L17 12L18 12L18 15L20 15L20 17L19 17L19 16L18 16L18 17L17 17L17 18L16 18L16 16L17 16L17 15L16 15L16 14L17 14L17 13L16 13L16 12L15 12L15 11L16 11L16 6L15 6L15 5ZM9 6L9 7L10 7L10 6ZM14 6L14 7L15 7L15 6ZM3 8L3 9L4 9L4 8ZM8 8L8 10L10 10L10 8ZM13 8L13 9L14 9L14 8ZM6 9L6 10L7 10L7 9ZM26 9L26 10L28 10L28 9ZM2 12L2 14L4 14L4 12ZM5 13L5 14L7 14L7 13ZM19 13L19 14L20 14L20 13ZM6 15L6 16L7 16L7 15ZM21 15L21 16L22 16L22 15ZM24 15L24 16L25 16L25 17L26 17L26 15ZM18 17L18 18L19 18L19 17ZM6 18L6 19L7 19L7 18ZM11 18L11 20L12 20L12 18ZM23 18L23 19L24 19L24 18ZM25 18L25 19L26 19L26 18ZM14 19L14 20L15 20L15 21L17 21L17 22L16 22L16 23L19 23L19 21L17 21L17 20L18 20L18 19L17 19L17 20L16 20L16 19ZM0 20L0 21L1 21L1 20ZM8 20L8 21L10 21L10 20ZM21 21L21 24L24 24L24 21ZM22 22L22 23L23 23L23 22ZM9 24L9 25L8 25L8 26L9 26L9 25L10 25L10 24ZM23 25L23 26L24 26L24 25ZM28 26L28 27L27 27L27 29L28 29L28 27L29 27L29 26ZM8 27L8 29L9 29L9 27ZM0 0L0 7L7 7L7 0ZM1 1L1 6L6 6L6 1ZM2 2L2 5L5 5L5 2ZM22 0L22 7L29 7L29 0ZM23 1L23 6L28 6L28 1ZM24 2L24 5L27 5L27 2ZM0 22L0 29L7 29L7 22ZM1 23L1 28L6 28L6 23ZM2 24L2 27L5 27L5 24Z" fill="#000000"/></g></g></svg>
