<?xml version="1.0" encoding="UTF-8"?>
<svg xmlns="http://www.w3.org/2000/svg" version="1.1" width="100" height="100" viewBox="0 0 100 100"><rect x="0" y="0" width="100" height="100" fill="#ffffff"/><g transform="scale(3.448)"><g transform="translate(0,0)"><path fill-rule="evenodd" d="M9 0L9 1L8 1L8 3L9 3L9 4L8 4L8 8L6 8L6 9L5 9L5 10L4 10L4 8L3 8L3 9L2 9L2 8L0 8L0 11L1 11L1 13L0 13L0 17L1 17L1 18L0 18L0 19L1 19L1 18L2 18L2 20L3 20L3 21L5 21L5 20L6 20L6 21L7 21L7 20L6 20L6 19L8 19L8 18L9 18L9 19L10 19L10 20L11 20L11 21L12 21L12 20L13 20L13 22L15 22L15 21L17 21L17 22L16 22L16 23L19 23L19 24L20 24L20 28L19 28L19 26L18 26L18 24L14 24L14 23L11 23L11 22L10 22L10 23L9 23L9 20L8 20L8 23L9 23L9 25L8 25L8 26L9 26L9 27L8 27L8 29L9 29L9 28L11 28L11 27L12 27L12 28L14 28L14 29L15 29L15 25L17 25L17 29L18 29L18 28L19 28L19 29L22 29L22 26L23 26L23 28L24 28L24 29L25 29L25 28L26 28L26 26L25 26L25 25L26 25L26 24L28 24L28 25L29 25L29 23L28 23L28 22L29 22L29 21L27 21L27 20L29 20L29 17L28 17L28 15L29 15L29 14L27 14L27 13L29 13L29 12L28 12L28 10L29 10L29 9L28 9L28 8L26 8L26 9L25 9L25 8L22 8L22 9L21 9L21 8L20 8L20 9L21 9L21 10L18 10L18 9L17 9L17 8L19 8L19 6L20 6L20 7L21 7L21 4L20 4L20 5L19 5L19 3L21 3L21 1L20 1L20 0L19 0L19 1L20 1L20 2L17 2L17 3L18 3L18 5L19 5L19 6L18 6L18 7L17 7L17 4L15 4L15 3L16 3L16 0L15 0L15 3L14 3L14 4L13 4L13 5L12 5L12 8L10 8L10 7L11 7L11 6L10 6L10 5L9 5L9 4L12 4L12 3L11 3L11 2L14 2L14 1L13 1L13 0L12 0L12 1L11 1L11 0ZM9 1L9 2L11 2L11 1ZM14 5L14 6L13 6L13 8L12 8L12 9L11 9L11 11L9 11L9 10L10 10L10 8L8 8L8 9L9 9L9 10L8 10L8 11L6 11L6 10L7 10L7 9L6 9L6 10L5 10L5 13L4 13L4 10L3 10L3 14L1 14L1 16L2 16L2 17L3 17L3 18L4 18L4 19L3 19L3 20L5 20L5 18L7 18L7 17L5 17L5 16L9 16L9 17L10 17L10 16L11 16L11 17L12 17L12 18L10 18L10 19L11 19L11 20L12 20L12 19L13 19L13 20L14 20L14 21L15 21L15 20L14 20L14 19L16 19L16 20L17 20L17 21L19 21L19 23L20 23L20 21L19 21L19 20L21 20L21 19L20 19L20 17L23 17L23 18L22 18L22 20L25 20L25 23L27 23L27 22L26 22L26 20L27 20L27 18L28 18L28 17L27 17L27 15L26 15L26 13L27 13L27 12L26 12L26 13L25 13L25 11L24 11L24 10L25 10L25 9L24 9L24 10L23 10L23 12L24 12L24 15L22 15L22 14L23 14L23 13L22 13L22 12L18 12L18 11L17 11L17 12L18 12L18 15L20 15L20 17L19 17L19 16L18 16L18 17L17 17L17 18L16 18L16 16L17 16L17 15L16 15L16 14L17 14L17 13L16 13L16 12L15 12L15 11L16 11L16 6L15 6L15 5ZM9 6L9 7L10 7L10 6ZM14 6L14 7L15 7L15 6ZM13 8L13 9L14 9L14 8ZM1 9L1 10L2 10L2 9ZM26 9L26 10L28 10L28 9ZM8 11L8 12L9 12L9 11ZM11 11L11 12L13 12L13 13L14 13L14 14L13 14L13 15L12 15L12 14L11 14L11 13L9 13L9 16L10 16L10 14L11 14L11 15L12 15L12 16L14 16L14 18L13 18L13 19L14 19L14 18L15 18L15 16L14 16L14 14L15 14L15 12L14 12L14 11ZM6 12L6 13L7 13L7 12ZM19 13L19 14L20 14L20 13ZM4 14L4 15L3 15L3 17L4 17L4 18L5 18L5 17L4 17L4 15L5 15L5 14ZM6 14L6 15L8 15L8 14ZM21 15L21 16L22 16L22 15ZM24 15L24 16L25 16L25 17L26 17L26 15ZM18 17L18 18L19 18L19 17ZM23 18L23 19L24 19L24 18ZM25 18L25 19L26 19L26 18ZM17 19L17 20L18 20L18 19ZM0 20L0 21L1 21L1 20ZM21 21L21 24L24 24L24 21ZM22 22L22 23L23 23L23 22ZM10 23L10 24L11 24L11 25L9 25L9 26L12 26L12 27L13 27L13 26L14 26L14 25L13 25L13 24L11 24L11 23ZM23 25L23 26L24 26L24 25ZM28 26L28 27L27 27L27 29L28 29L28 27L29 27L29 26ZM0 0L0 7L7 7L7 0ZM1 1L1 6L6 6L6 1ZM2 2L2 5L5 5L5 2ZM22 0L22 7L29 7L29 0ZM23 1L23 6L28 6L28 1ZM24 2L24 5L27 5L27 2ZM0 22L0 29L7 29L7 22ZM1 23L1 28L6 28L6 23ZM2 24L2 27L5 27L5 24Z" fill="#000000"/></g></g></svg>
