<?xml version="1.0" encoding="UTF-8"?>
<svg xmlns="http://www.w3.org/2000/svg" version="1.1" width="100" height="100" viewBox="0 0 100 100"><rect x="0" y="0" width="100" height="100" fill="#ffffff"/><g transform="scale(3.448)"><g transform="translate(0,0)"><path fill-rule="evenodd" d="M9 0L9 1L8 1L8 2L9 2L9 3L8 3L8 4L10 4L10 7L11 7L11 4L12 4L12 5L13 5L13 6L12 6L12 9L14 9L14 10L13 10L13 11L12 11L12 12L13 12L13 13L10 13L10 12L11 12L11 11L10 11L10 9L11 9L11 8L6 8L6 9L5 9L5 8L0 8L0 10L1 10L1 9L2 9L2 10L3 10L3 11L2 11L2 12L4 12L4 13L2 13L2 14L1 14L1 15L0 15L0 16L3 16L3 18L2 18L2 19L4 19L4 20L6 20L6 21L8 21L8 23L9 23L9 22L10 22L10 23L11 23L11 22L12 22L12 23L14 23L14 24L13 24L13 25L11 25L11 24L10 24L10 27L11 27L11 26L13 26L13 27L17 27L17 25L18 25L18 27L19 27L19 28L22 28L22 27L23 27L23 26L24 26L24 27L26 27L26 26L24 26L24 25L28 25L28 26L27 26L27 28L24 28L24 29L27 29L27 28L28 28L28 26L29 26L29 25L28 25L28 24L25 24L25 23L27 23L27 22L29 22L29 20L28 20L28 19L27 19L27 16L28 16L28 15L27 15L27 12L28 12L28 11L27 11L27 12L25 12L25 9L26 9L26 8L25 8L25 9L24 9L24 8L23 8L23 9L22 9L22 8L20 8L20 9L18 9L18 8L17 8L17 4L18 4L18 7L19 7L19 5L20 5L20 3L21 3L21 0L19 0L19 1L17 1L17 0L16 0L16 1L14 1L14 2L16 2L16 1L17 1L17 2L18 2L18 3L15 3L15 4L16 4L16 5L14 5L14 3L12 3L12 2L13 2L13 1L11 1L11 2L10 2L10 0ZM19 1L19 2L20 2L20 1ZM10 3L10 4L11 4L11 3ZM18 3L18 4L19 4L19 3ZM8 5L8 7L9 7L9 5ZM13 6L13 8L14 8L14 9L15 9L15 10L14 10L14 11L13 11L13 12L14 12L14 14L16 14L16 13L17 13L17 16L16 16L16 17L15 17L15 16L14 16L14 15L13 15L13 16L11 16L11 15L12 15L12 14L11 14L11 15L10 15L10 14L9 14L9 12L8 12L8 11L6 11L6 10L7 10L7 9L6 9L6 10L5 10L5 9L3 9L3 10L5 10L5 13L6 13L6 14L2 14L2 15L3 15L3 16L4 16L4 19L5 19L5 16L7 16L7 17L6 17L6 18L7 18L7 17L13 17L13 16L14 16L14 17L15 17L15 18L11 18L11 19L10 19L10 20L11 20L11 21L13 21L13 22L14 22L14 21L15 21L15 20L18 20L18 21L17 21L17 22L19 22L19 20L21 20L21 19L22 19L22 18L21 18L21 17L20 17L20 16L21 16L21 14L22 14L22 17L23 17L23 18L24 18L24 19L25 19L25 21L26 21L26 20L27 20L27 19L25 19L25 18L24 18L24 17L26 17L26 16L27 16L27 15L26 15L26 13L25 13L25 12L24 12L24 9L23 9L23 12L22 12L22 13L20 13L20 12L21 12L21 11L22 11L22 10L21 10L21 9L20 9L20 10L19 10L19 11L15 11L15 10L16 10L16 9L17 9L17 10L18 10L18 9L17 9L17 8L16 8L16 6L15 6L15 8L14 8L14 6ZM20 6L20 7L21 7L21 6ZM27 8L27 9L28 9L28 10L29 10L29 9L28 9L28 8ZM0 12L0 13L1 13L1 12ZM6 12L6 13L8 13L8 12ZM15 12L15 13L16 13L16 12ZM17 12L17 13L18 13L18 14L20 14L20 13L18 13L18 12ZM23 12L23 13L22 13L22 14L23 14L23 13L24 13L24 14L25 14L25 13L24 13L24 12ZM28 13L28 14L29 14L29 13ZM6 14L6 15L7 15L7 14ZM4 15L4 16L5 16L5 15ZM23 15L23 16L24 16L24 15ZM17 16L17 17L16 17L16 18L15 18L15 19L16 19L16 18L17 18L17 17L18 17L18 16ZM0 17L0 21L1 21L1 17ZM19 17L19 18L20 18L20 17ZM28 17L28 18L29 18L29 17ZM6 19L6 20L8 20L8 21L9 21L9 19ZM11 19L11 20L13 20L13 21L14 21L14 20L13 20L13 19ZM18 19L18 20L19 20L19 19ZM21 21L21 24L24 24L24 21ZM22 22L22 23L23 23L23 22ZM15 23L15 24L14 24L14 25L13 25L13 26L14 26L14 25L15 25L15 26L16 26L16 25L17 25L17 24L18 24L18 25L19 25L19 27L20 27L20 23L19 23L19 24L18 24L18 23ZM8 24L8 29L10 29L10 28L9 28L9 24ZM22 25L22 26L21 26L21 27L22 27L22 26L23 26L23 25ZM13 28L13 29L14 29L14 28ZM15 28L15 29L16 29L16 28ZM17 28L17 29L18 29L18 28ZM0 0L0 7L7 7L7 0ZM1 1L1 6L6 6L6 1ZM2 2L2 5L5 5L5 2ZM22 0L22 7L29 7L29 0ZM23 1L23 6L28 6L28 1ZM24 2L24 5L27 5L27 2ZM0 22L0 29L7 29L7 22ZM1 23L1 28L6 28L6 23ZM2 24L2 27L5 27L5 24Z" fill="#000000"/></g></g></svg>
