<svg data-name="Group 196" xmlns="http://www.w3.org/2000/svg" width="182" height="70.755"><defs><clipPath id="a"><path data-name="Rectangle 23873" fill="none" d="M0 0h182v70.755H0z"/></clipPath></defs><g data-name="Group 184" clip-path="url(#a)"><path data-name="Path 835" d="M17.815 67.658h.7v.219c0 .551.289.779 1.059.779h1.609c1.128 0 1.487-.044 1.487-.709v-.035c0-.428-.122-.664-1.023-.664h-2.319c-1.058 0-1.452-.342-1.452-1.19v-.262c0-.726.411-1.129 2.266-1.129h1.154c1.7 0 1.933.49 1.933 1.12v.236h-.7v-.044c0-.682-.455-.7-1.277-.7h-1.311c-1.076 0-1.312.1-1.312.612v.166c0 .367.122.577.91.577h1.986c1.128 0 1.9.114 1.9 1.321v.018c0 1.251-1.155 1.295-2.073 1.295h-1.385c-1.111 0-2.152 0-2.152-1.339z" fill="#96999c"/><path data-name="Path 836" d="M32.247 66.556c0-.866-.28-1.277-1.338-1.277h-1.5c-.989 0-1.365.516-1.365 1.286v.849c0 1.067.665 1.242 1.461 1.242h1.339c.875 0 1.4-.193 1.4-1.225zM27.3 64.733h.7v.708h.018a1.5 1.5 0 011.5-.779h1.426c1.067 0 2.064.341 2.064 1.88v.787c0 1.444-.639 1.934-2.187 1.934h-1.435c-.8 0-1.155-.2-1.312-.665h-.017v2.152H27.3z" fill="#96999c"/><path data-name="Path 837" d="M41.946 66.521c0-1.041-.612-1.242-1.487-1.242h-1.531c-.875 0-1.487.2-1.487 1.242v.893c0 1.04.612 1.242 1.487 1.242h1.531c.875 0 1.487-.2 1.487-1.242zm-5.257-.044c0-1.469 1.041-1.81 2.467-1.81h1.076c1.426 0 2.467.341 2.467 1.81v.98c0 1.47-1.041 1.811-2.467 1.811h-1.076c-1.425 0-2.467-.341-2.467-1.811z" fill="#96999c"/><path data-name="Path 838" d="M46.649 64.733h.7v.647h.018a1.391 1.391 0 011.365-.717h.709c1.408 0 1.872.455 1.872 1.548v.534h-.7v-.193c0-1.1-.227-1.277-1.566-1.277h-.463a1.065 1.065 0 00-1.181 1.085v2.834h-.754z" fill="#96999c"/><path data-name="Path 839" d="M55.23 65.349h-.98v-.612h.98v-1.059h.752v1.059h2.983v.612h-2.983v2.222c0 .831.289 1.085 1.111 1.085h.236c1 0 1.154-.21 1.154-1.146v-.332h.612v.49c0 .892-.087 1.6-1.714 1.6h-.406c-1.408 0-1.741-.683-1.741-1.408z" fill="#96999c"/><path data-name="Path 840" d="M62.472 67.658h.7v.219c0 .551.289.779 1.059.779h1.609c1.128 0 1.487-.044 1.487-.709v-.035c0-.428-.122-.664-1.023-.664h-2.318c-1.059 0-1.452-.342-1.452-1.19v-.262c0-.726.411-1.129 2.266-1.129h1.154c1.7 0 1.933.49 1.933 1.12v.236h-.7v-.044c0-.682-.455-.7-1.277-.7h-1.312c-1.076 0-1.312.1-1.312.612v.166c0 .367.122.577.91.577h1.986c1.129 0 1.9.114 1.9 1.321v.018c0 1.251-1.155 1.295-2.073 1.295h-1.387c-1.111 0-2.152 0-2.152-1.339z" fill="#96999c"/><path data-name="Path 841" d="M78.792 64.733h.7v.77h.018c.28-.691.866-.84 1.8-.84h1.128c1.408 0 1.855.708 1.855 1.514v3.018h-.752v-2.834c0-.656-.184-1.085-1.645-1.085h-.193c-1.758 0-2.16.332-2.16 1.382v2.537h-.752z" fill="#96999c"/><path data-name="Path 842" d="M93.135 68.432h-.018c-.28.691-.865.84-1.8.84h-1.129c-1.408 0-1.855-.708-1.855-1.513v-3.018h.753v2.834c0 .656.183 1.085 1.644 1.085h.193c1.758 0 2.16-.332 2.16-1.382v-2.537h.753v4.461h-.7z" fill="#96999c"/><path data-name="Path 843" d="M98.277 65.349h-.979v-.612h.979v-1.059h.752v1.059h2.983v.612h-2.983v2.222c0 .831.289 1.085 1.111 1.085h.237c1 0 1.154-.21 1.154-1.146v-.332h.612v.49c0 .892-.087 1.6-1.715 1.6h-.411c-1.409 0-1.741-.683-1.741-1.408z" fill="#96999c"/><path data-name="Path 844" d="M105.742 64.733h.7v.647h.018a1.391 1.391 0 011.364-.717h.708c1.408 0 1.872.455 1.872 1.548v.534h-.7v-.193c0-1.1-.227-1.277-1.565-1.277h-.464a1.065 1.065 0 00-1.18 1.085v2.834h-.753z" fill="#96999c"/><path data-name="Path 845" d="M114.029 64.737h.752v4.46h-.752zm0-1.872h.752v.823h-.752z" fill="#96999c"/><path data-name="Path 846" d="M119.333 65.349h-.979v-.612h.979v-1.059h.752v1.059h2.983v.612h-2.983v2.222c0 .831.289 1.085 1.111 1.085h.237c1 0 1.154-.21 1.154-1.146v-.332h.613v.49c0 .892-.087 1.6-1.715 1.6h-.411c-1.408 0-1.741-.683-1.741-1.408z" fill="#96999c"/><path data-name="Path 847" d="M126.842 64.737h.752v4.46h-.752zm0-1.872h.752v.823h-.752z" fill="#96999c"/><path data-name="Path 848" d="M136.848 66.521c0-1.041-.612-1.242-1.486-1.242h-1.532c-.875 0-1.487.2-1.487 1.242v.893c0 1.04.612 1.242 1.487 1.242h1.531c.874 0 1.486-.2 1.486-1.242zm-5.257-.044c0-1.469 1.041-1.81 2.467-1.81h1.076c1.426 0 2.467.341 2.467 1.81v.98c0 1.47-1.041 1.811-2.467 1.811h-1.076c-1.426 0-2.467-.341-2.467-1.811z" fill="#96999c"/><path data-name="Path 849" d="M141.491 64.733h.7v.77h.017c.28-.691.866-.84 1.8-.84h1.128c1.408 0 1.855.708 1.855 1.514v3.018h-.755v-2.834c0-.656-.183-1.085-1.644-1.085h-.192c-1.758 0-2.161.332-2.161 1.382v2.537h-.753z" fill="#96999c"/><path data-name="Path 850" d="M148.42 37.709L182 0l-23.806 37.785 10.04 18.683h-11.65z" fill="#980321"/><path data-name="Path 851" d="M32.978 45.322c-2.384 11.232-8.92 11.782-19.133 11.782-13.684 0-15.59-4.362-12.664-18.183C3.9 26.122 7.172 20.54 21.607 20.54c14.706 0 15.725 4.288 12.458 19.878H9.488c-1.634 7.7-1.972 10.148 5.721 10.148 4.763 0 8.1.067 9.19-5.244zm-6.331-10.351c1.564-7.35.54-7.9-6.466-7.9-7.423 0-8.174 1.567-9.536 7.9z" fill="#002d5e"/><path data-name="Path 852" d="M72.196 56.694h-8.577l7.623-35.749h8.577zm8.893-41.165H72.51l1.5-7.285h8.579z" fill="#002d5e"/><path data-name="Path 853" d="M102.664 37.901l7.558 18.793h-10.081L95.713 43.62l-9.936 13.075H75.564l15.8-18.793-6.81-16.957h9.808l3.743 11.44 8.647-11.44h9.943z" fill="#002d5e"/><path data-name="Path 854" d="M138.639 37.901l7.56 18.793h-10.08l-4.425-13.074-9.939 13.075h-10.216l15.8-18.793-6.81-16.958h9.8l3.743 11.44 8.649-11.44h9.941z" fill="#002d5e"/><path data-name="Path 855" d="M52.164 27.482h11.912l1.432-6.538H53.596l1.7-8.1h-8.58l-1.7 8.1h-3.835l-1.356 6.538h3.763l-3.41 16.154h-.013c-1.453 6.3-.121 13.157 11.947 13.4a23.119 23.119 0 007.221-1.07l1.583-7.378a23.546 23.546 0 01-5.271.912c-6.94.631-7.517-2.124-7.026-5.274z" fill="#002d5e"/></g></svg>